# xmcd
#
# Track frame offsets:
#	150
#	16387
#	30787
#	51200
#	66075
#	86625
#	114775
#	131850
#	151837
#	168780
#
# Disc length: 2421 seconds
#
# Revision: 3
# Processed by: cddbd v1.5.2PL0 Copyright (c) Steve Scherf et al.
# Submitted via: EasyCDDAExtractor 2010.6.0.0
#
DISCID=6e09730a
DTITLE=Various Artist - The New Bluebloods: The Next Generation of Chicago Bl
DTITLE=ues
DYEAR=1987
DGENRE=Blues
TTITLE0=David Kinsey and the Kinsey Report - Corner of the Blanket
TTITLE1=Valerie Wellington - A Fool For You
TTITLE2=Dion Payton and the 43rd Street Blues Band - All Your Affection Is Gon
TTITLE2=e
TTITLE3=The Sons of Blues/Chi-Town Hustlers - The Only Thing That Saved Me
TTITLE4=The Professor's Blues Review Featuring Gloria Hardiman - Meet Me with 
TTITLE4=Your Black Drawers On
TTITLE5=John Watkins - Chained To Your Love
TTITLE6=Michael Coleman - Woman Loves A Woman
TTITLE7=Maurice John Vaughn - Nothing Left To Believe In
TTITLE8=Melvin Taylor and the Slack Band - Depression Blues
TTITLE9=Lil' Ed and The Blues Imperials - Young Thing
EXTD=
EXTT0=Donald Kinsey and the Kinsy Report\n
EXTT1=Valerie Wellington\n
EXTT2=Dion Payton and the 43rd Street Blues \nBand\n
EXTT3=The Sons of Blues/Chi-Town Hustlers\n
EXTT4=The Professor's Blues Review Featuring \nGloria Hardiman\n
EXTT5=John Watkins\n
EXTT6=Micheal Coleman\n
EXTT7=Maurice John Vaughn\n
EXTT8=Melvin Taylor and the Slack Band\n
EXTT9=Lil'Ed and the Blues Imperials\n
PLAYORDER=
